<svg xmlns="http://www.w3.org/2000/svg" xmlns:xlink="http://www.w3.org/1999/xlink" version="1.1" id="Calque_1" x="0px" y="0px" width="100px" height="100px" viewBox="0 0 100 100" enable-background="new 0 0 100 100" xml:space="preserve">
<g>
	<path fill="#000000" d="M49.332,39.971C42.94,36.28,35.4,34.796,28.084,35.779c-0.72,0.097-1.243,0.734-1.198,1.459l0.554,8.953   c0.024,0.391,0.212,0.753,0.518,0.998c0.306,0.244,0.698,0.348,1.087,0.285c4.939-0.8,10.087,0.141,14.422,2.646   c4.326,2.499,7.69,6.453,9.477,11.134c0.141,0.365,0.427,0.654,0.791,0.797c0.164,0.062,0.335,0.095,0.505,0.095   c0.212,0,0.425-0.049,0.618-0.146l8.025-4.006c0.65-0.324,0.941-1.096,0.664-1.769C60.7,49.32,55.784,43.7,49.332,39.971z"/>
	<path fill="#000000" d="M58.061,24.866c-9.349-5.404-20.304-7.707-31.017-6.532c-0.735,0.08-1.278,0.724-1.232,1.462l0.55,8.936   c0.023,0.381,0.202,0.735,0.496,0.979c0.292,0.245,0.673,0.358,1.052,0.312c8.377-0.999,16.971,0.761,24.286,4.988   c7.381,4.264,13.059,10.655,16.424,18.483c0.149,0.351,0.438,0.622,0.797,0.755c0.154,0.057,0.313,0.084,0.476,0.084   c0.214,0,0.425-0.049,0.619-0.146l8.011-3.997c0.662-0.33,0.948-1.122,0.648-1.799C74.778,38.439,67.478,30.305,58.061,24.866z"/>
	<path fill="#000000" d="M95.387,40.277C89.397,27.155,79.626,16.4,67.126,9.176C56.636,3.115,44.71-0.088,32.637-0.088   c-2.224,0-4.476,0.108-6.693,0.324c-0.743,0.072-1.296,0.72-1.25,1.465l0.552,8.936c0.023,0.376,0.199,0.727,0.487,0.971   c0.287,0.244,0.656,0.359,1.037,0.322c11.934-1.22,24.093,1.384,34.494,7.395c10.471,6.05,18.627,15.075,23.586,26.098   c0.156,0.345,0.444,0.61,0.801,0.737c0.15,0.054,0.308,0.081,0.464,0.081c0.214,0,0.425-0.049,0.62-0.146l8.01-4   C95.412,41.759,95.697,40.957,95.387,40.277z"/>
	<path fill="#000000" d="M30.54,55.312c-4.694,0-9.108,1.828-12.427,5.147c-3.32,3.318-5.148,7.731-5.148,12.426   c0,4.669,1.808,9.059,5.091,12.372L29.455,99.61c0.263,0.33,0.663,0.523,1.085,0.523c0.423,0,0.822-0.193,1.085-0.523   l11.398-14.354c3.283-3.313,5.09-7.703,5.09-12.372c0-4.694-1.828-9.107-5.147-12.426C39.647,57.14,35.234,55.312,30.54,55.312z    M35.992,77.906c-1.457,1.457-3.393,2.26-5.453,2.26s-3.996-0.803-5.453-2.26c-3.005-3.008-3.005-7.899,0-10.904   c1.457-1.458,3.394-2.26,5.453-2.26s3.996,0.802,5.453,2.26C38.998,70.007,38.998,74.898,35.992,77.906z"/>
</g>
</svg>